#!OML:ASF F:\VICON\USERDATA\INSTALL\rory3\rory3.ASF
:FULLY-SPECIFIED
:DEGREES
124
root -12.2717 17.5649 -5.43477 -128.97 87.2701 -127.252
lowerback 12.3794 -0.0182681 0.766429
upperback 0.536848 0.235111 1.55212
thorax -6.38976 0.136115 1.15849
lowerneck -14.6331 -10.5874 -14.685
upperneck 31.0196 -14.2076 10.871
head 15.2478 -6.22819 4.45396
rclavicle -1.97542e-015 -6.16232e-015
rhumerus -36.2387 -13.0287 -73.3388
rradius 34.3463
rwrist 4.71236
rhand -17.4444 5.24993
rfingers 7.12502
rthumb 8.80649 -24.5463
lclavicle -1.97542e-015 -6.16232e-015
lhumerus -37.869 8.07319 80.831
lradius 36.1135
lwrist -4.35389
lhand -15.8861 24.6243
lfingers 7.12502
lthumb 10.31 54.3516
rfemur -8.86646 1.18552 20.5749
rtibia 34.2611
rfoot -19.9292 7.00829
rtoes 6.80619
lfemur -11.8029 -1.40802 -21.0374
ltibia 39.5619
lfoot -22.3333 -20.4599
ltoes -11.0621
125
root -12.2733 17.5641 -5.3674 -121.434 87.2879 -119.735
lowerback 12.3025 0.0963245 0.633214
upperback 0.510555 0.374269 1.65477
thorax -6.3782 0.209633 1.31745
lowerneck -14.5588 -10.5926 -14.5497
upperneck 30.9862 -14.2524 10.8436
head 15.2059 -6.23729 4.41214
rclavicle -2.73329e-015 -7.15625e-015
rhumerus -36.3798 -13.2893 -73.2235
rradius 34.4028
rwrist 5.01013
rhand -18.0693 5.14223
rfingers 7.12502
rthumb 8.20347 -24.6785
lclavicle -2.73329e-015 -7.15625e-015
lhumerus -37.8986 7.75394 81.0431
lradius 36.112
lwrist -4.04834
lhand -16.2881 24.7805
lfingers 7.12502
lthumb 9.9222 54.5267
rfemur -9.0667 1.28782 20.961
rtibia 34.5418
rfoot -19.9768 7.36211
rtoes 7.00552
lfemur -11.6251 -1.66428 -21.003
ltibia 39.3288
lfoot -21.946 -20.0563
ltoes -9.84901
126
root -12.2775 17.5594 -5.30861 -119.375 87.2904 -117.6
lowerback 12.3451 0.11744 0.461809
upperback 0.522744 0.383272 1.71271
thorax -6.39083 0.220287 1.4739
lowerneck -14.5426 -10.5361 -14.4361
upperneck 30.8803 -14.2129 10.89
head 15.1383 -6.20442 4.41875
rclavicle -4.62174e-015 -7.7526e-015
rhumerus -36.4737 -13.3475 -73.1462
rradius 34.538
rwrist 5.05316
rhand -18.2733 5.12771
rfingers 7.12502
rthumb 8.00657 -24.7006
lclavicle -4.62174e-015 -7.7526e-015
lhumerus -37.8465 7.6128 81.1807
lradius 36.0653
lwrist -3.93084
lhand -16.5121 24.9009
lfingers 7.12502
lthumb 9.70608 54.6573
rfemur -9.21266 0.960845 21.1402
rtibia 34.8831
rfoot -20.017 7.95363
rtoes 7.40851
lfemur -11.3508 -1.96015 -21.0958
ltibia 39.0496
lfoot -20.9059 -20.185
ltoes -4.93487
127
root -12.2846 17.5494 -5.25041 -119.473 87.3526 -117.629
lowerback 12.3755 0.11203 0.14525
upperback 0.574161 0.335731 1.76543
thorax -6.35436 0.207359 1.71678
lowerneck -14.611 -10.4936 -14.3701
upperneck 30.8062 -14.1684 10.9195
head 15.1074 -6.17435 4.42447
rclavicle 5.65294e-015 1.19271e-014
rhumerus -36.5297 -13.3916 -73.0533
rradius 34.7284
rwrist 5.14768
rhand -17.6917 5.44895
rfingers 7.12502
rthumb 8.56791 -24.3572
lclavicle 5.65294e-015 1.19271e-014
lhumerus -37.731 7.6582 81.2802
lradius 35.9976
lwrist -4.20319
lhand -16.3999 24.802
lfingers 7.12502
lthumb 9.81432 54.5533
rfemur -9.44858 0.237791 21.1448
rtibia 35.3455
rfoot -20.0402 9.04975
rtoes 8.70849
lfemur -11.041 -2.12138 -21.2686
ltibia 38.6349
lfoot -19.6964 -19.9443
ltoes 0.508584
128
root -12.2919 17.5394 -5.19135 -118.855 87.5123 -116.97
lowerback 12.4167 0.172151 -0.258494
upperback 0.600329 0.35996 1.78565
thorax -6.35297 0.231167 1.96242
lowerneck -14.6678 -10.5299 -14.314
upperneck 30.7738 -14.2392 10.9355
head 15.1133 -6.19494 4.40326
rclavicle -2.47238e-015 -5.1684e-015
rhumerus -36.6534 -13.7182 -72.8647
rradius 34.8618
rwrist 5.53641
rhand -16.8155 5.56175
rfingers 7.12502
rthumb 9.41336 -24.208
lclavicle -2.47238e-015 -5.1684e-015
lhumerus -37.6575 7.48911 81.4184
lradius 36.0214
lwrist -4.31679
lhand -15.9506 24.4186
lfingers 7.12502
lthumb 10.2478 54.149
rfemur -9.73184 -0.223057 21.1064
rtibia 35.8132
rfoot -20.0503 9.8373
rtoes 9.8405
lfemur -10.735 -2.13918 -21.4822
ltibia 38.1537
lfoot -19.0009 -18.7182
ltoes 2.69588
